<?xml version="1.0" encoding="utf-8"?>
<!-- Generator: Adobe Illustrator 22.1.0, SVG Export Plug-In . SVG Version: 6.00 Build 0)  -->
<svg version="1.1" id="Layer_1" xmlns="http://www.w3.org/2000/svg" xmlns:xlink="http://www.w3.org/1999/xlink" x="0px" y="0px"
	 viewBox="0 0 110 35" style="enable-background:new 0 0 110 35;" xml:space="preserve">
<style type="text/css">
	.st0{fill:#F077AB;}
	.st1{fill:#F5F5F5;}
	.st2{fill:#F8B133;}
	.st3{fill:#66C5EE;}
	.st4{fill:#FFDD00;}
</style>
<g>
	<path class="st0" d="M32.8,6.9c0-0.3-0.2-0.6-0.6-0.6C26.5,6.6,20.7,6.8,15,7c-0.3,0-0.5,0.2-0.5,0.5c0,7.1-0.4,14.1-0.4,21.2
		c-0.2,0.2-0.2,0.4-0.1,0.7c0,0,0,0.1,0.1,0.1c-0.1,0.2,0,0.6,0.3,0.6c1.9,0.4,3.9,0.7,5.8,0.9c0.5,0.1,1,0.1,1.5,0.2
		c1.4,0.1,2.8,0.3,4.3,0.4c1.4,0.1,2.8,0.2,4.3,0.2c0.5,0,1.3-0.1,1.5-0.6c0.2-0.1,0.3-0.3,0.3-0.5c-0.1-4-0.1-8,0.1-12
		c0.1-2,0.2-4,0.4-5.9C32.6,10.8,33,8.8,32.8,6.9z M16.9,29.6c-0.1-0.1-0.2-0.1-0.2-0.2c0.1,0,0.2,0,0.3,0c0.1,0.1,0.2,0.1,0.3,0.2
		c0.1,0,0.2,0,0.3,0c0.1,0.1,0.2,0.1,0.3,0.2C17.5,29.7,17.2,29.7,16.9,29.6C16.9,29.6,16.9,29.6,16.9,29.6z M30.8,23.2
		c0-0.2-0.1-0.3-0.1-0.5c0,0,0-0.1,0-0.1c0.1,0,0.1,0,0.2,0C30.8,22.8,30.8,23,30.8,23.2z M15.7,23c0.2,0,0.4,0,0.5-0.2
		c0,0.2-0.1,0.5-0.1,0.7c-0.1,0.2-0.3,0.5-0.4,0.7c0-0.3,0-0.6,0-0.8C15.7,23.3,15.7,23.2,15.7,23z M21.6,27.9c0.1,0,0.2,0,0.3,0
		c0,0,0,0.1,0,0.1c0,0-0.1,0-0.1,0C21.7,27.9,21.7,27.9,21.6,27.9z M17.4,17.8C17.4,17.8,17.5,17.8,17.4,17.8c0,0.1,0,0.2,0,0.2
		c0,0,0,0-0.1,0C17.4,17.9,17.4,17.9,17.4,17.8z M23,15.9c-0.2-0.1-0.4-0.2-0.5-0.3c0-0.1,0.1-0.1,0.1-0.2
		C22.7,15.6,22.9,15.7,23,15.9C23,15.9,23,15.9,23,15.9z M20.9,16.1c-0.1,0-0.1,0-0.2-0.1c0,0,0.1-0.1,0.1-0.1c0,0,0.1,0.1,0.1,0.1
		C20.9,16,20.9,16,20.9,16.1z M23.1,14.6c0.1-0.2,0.2-0.3,0.2-0.5c0,0.3,0.1,0.5,0.1,0.8C23.3,14.8,23.2,14.7,23.1,14.6z M21.7,14.7
		c-0.1,0.1-0.2,0.3-0.3,0.4c0,0,0,0-0.1,0C21.5,14.9,21.6,14.8,21.7,14.7C21.7,14.7,21.7,14.7,21.7,14.7z M19.7,15.2
		c0,0,0.1,0.1,0.1,0.1c0,0.1-0.1,0.1-0.1,0.2c0,0,0,0,0,0c0,0,0,0,0,0C19.8,15.4,19.7,15.3,19.7,15.2z M21.1,17.7
		c0.2,0.1,0.4,0.3,0.6,0.4c-0.1,0.1-0.1,0.2-0.2,0.3c-0.1,0-0.2,0-0.3,0.1c-0.2-0.1-0.3-0.1-0.5-0.2c0.1-0.1,0.1-0.3,0.2-0.4
		C21,17.7,21,17.7,21.1,17.7z M20.3,17.1c0,0.1-0.1,0.2-0.1,0.2c-0.1,0.1-0.2,0.3-0.3,0.4c-0.1-0.1-0.3-0.1-0.4-0.2
		c0.1-0.3,0.1-0.6,0.2-0.9C19.8,16.8,20,17,20.3,17.1z M19.8,20.3c0-0.1,0.1-0.2,0.1-0.2c0.1,0,0.1-0.1,0.2-0.1
		c0.1-0.1,0.3-0.1,0.5-0.2c0,0,0.1,0,0.1,0.1c-0.2,0.2-0.3,0.5-0.5,0.7c0,0,0,0-0.1,0C20,20.4,19.9,20.3,19.8,20.3z M19.6,21.3
		c-0.2,0.2-0.4,0.5-0.5,0.7c0.1-0.3,0.2-0.5,0.3-0.8C19.4,21.2,19.5,21.2,19.6,21.3z M23.2,11.2C23.2,11.2,23.2,11.2,23.2,11.2
		C23.2,11.2,23.2,11.2,23.2,11.2c-0.6,0.5-1,0.9-1.4,1.4c-0.2,0.2-0.4,0.3-0.7,0.5C21.1,13,21,13,21,12.9c0.1-0.1,0.3-0.3,0.4-0.4
		c0.3,0.1,0.6-0.3,0.6-0.6c0.3-0.3,0.6-0.6,0.9-0.9C23,11.1,23.1,11.1,23.2,11.2z M20.4,21.8c0.1,0,0.1,0.1,0.2,0.1
		c-0.1,0.2-0.2,0.5-0.3,0.7c-0.1-0.1-0.2-0.1-0.4-0.2C20.1,22.2,20.3,22,20.4,21.8z M25.4,19.2c0.2,0.1,0.3,0.1,0.5,0.2
		c0,0.1-0.1,0.2-0.1,0.3c-0.2-0.1-0.3-0.2-0.5-0.3C25.3,19.3,25.4,19.3,25.4,19.2z M25.9,18.2c0.1-0.2,0.2-0.4,0.3-0.6
		c0,0.2,0,0.5,0,0.7C26,18.3,25.9,18.2,25.9,18.2z M25.4,13c-0.1-0.3-0.1-0.7-0.2-1c0-0.1,0.1-0.3,0.1-0.4c0.3-0.1,0.4-0.6,0.2-0.8
		c0,0,0,0,0,0c0.1-0.1,0.3-0.2,0.4-0.3c-0.2,0.8-0.3,1.6-0.4,2.4C25.4,12.9,25.4,13,25.4,13z M22.3,25.2c0,0.2-0.1,0.4-0.1,0.6
		c0,0-0.1,0-0.1-0.1C22.2,25.5,22.2,25.4,22.3,25.2z M24.4,9.9C24.3,9.9,24.3,9.9,24.4,9.9C24.3,9.9,24.3,9.9,24.4,9.9
		c-0.1-0.1-0.1-0.1-0.1-0.1c0,0,0.1,0,0.1-0.1C24.3,9.7,24.3,9.8,24.4,9.9z M16.8,25.5c0.1-0.1,0.1-0.1,0.2-0.2c0,0,0,0,0,0
		c0,0.2-0.1,0.3-0.1,0.5C16.9,25.7,16.9,25.6,16.8,25.5z M18.6,24.1c0,0,0-0.1,0-0.1c0.2-0.2,0.3-0.4,0.5-0.5
		c0.2,0.1,0.5,0.2,0.7,0.3c-0.1,0.3-0.3,0.6-0.4,0.9c-0.1,0-0.3-0.1-0.4-0.1C19,24.3,18.8,24.2,18.6,24.1z M24.1,26.3
		c0.2,0.2,0.4,0.3,0.6,0.5c-0.2-0.1-0.5-0.2-0.7-0.3C24,26.4,24,26.4,24.1,26.3z M24.8,25.6c0.1,0,0.3,0.1,0.4,0.1
		c0,0.1,0,0.1,0,0.2C25,25.8,24.9,25.7,24.8,25.6z M24.9,21.8c-0.1-0.1-0.2-0.2-0.3-0.3c0-0.2,0-0.4,0.1-0.5c0,0,0,0,0,0
		c0.2,0.1,0.3,0.1,0.5,0.2C25.1,21.3,25,21.5,24.9,21.8C24.9,21.7,24.9,21.7,24.9,21.8z M21.1,10.5c-0.1,0.1-0.2,0.2-0.3,0.4
		c-0.1-0.1-0.2-0.2-0.3-0.2c0.1-0.1,0.2-0.2,0.2-0.3C20.8,10.4,21,10.4,21.1,10.5z M18.1,13c0,0-0.1,0.1-0.1,0.1
		C18,13.1,18,13,18.1,13C18,13,18.1,13,18.1,13z M25.1,24.1c0.1-0.2,0.2-0.4,0.2-0.6c0,0,0,0,0,0c0.1,0,0.2,0,0.3,0
		c-0.1,0.3-0.2,0.7-0.2,1C25.3,24.3,25.2,24.2,25.1,24.1z M26,22c-0.1,0.2-0.1,0.4-0.2,0.7c0,0,0,0,0,0c0,0-0.1-0.1-0.1-0.1
		c0,0,0-0.1,0.1-0.1c0.1-0.3,0.2-0.6,0.4-0.8c0,0,0,0,0,0C26.1,21.7,26,21.8,26,22z M22.1,9.4c-0.2-0.1-0.3-0.1-0.5-0.1
		c0.2,0,0.4,0,0.7,0C22.2,9.3,22.2,9.4,22.1,9.4z M17.8,13.4C17.8,13.4,17.8,13.4,17.8,13.4c-0.2,0.3-0.3,0.6-0.5,0.9
		c0-0.2,0-0.4,0.1-0.7L17.8,13.4z M18.1,26.8c0-0.2-0.1-0.4-0.1-0.6c0.2,0.4,0.3,0.8,0.5,1.2c-0.2,0-0.4-0.1-0.6-0.1
		C18,27.1,18.1,27,18.1,26.8z M21.3,26.8c0.1,0,0.2,0.1,0.4,0.1c-0.2,0-0.3,0-0.5,0C21.2,26.9,21.2,26.9,21.3,26.8z M23.2,27.5
		c0.5,0.1,0.9,0.3,1.4,0.4c0.3,0.1,0.5,0.3,0.8,0.4c-0.9-0.1-1.8-0.2-2.6-0.3C22.9,27.9,23.1,27.7,23.2,27.5z M26.8,27.9
		c0-0.1,0-0.3-0.1-0.4c0,0,0,0,0,0c0.4-0.6,0.7-1.3,1-1.9c-0.1,0.9-0.2,1.8-0.3,2.6C27.1,28.1,27,28,26.8,27.9z M26.1,26.6
		c0-0.3,0-0.5,0.1-0.8c0.1-0.1,0.2-0.4,0.1-0.6c0-0.1,0.1-0.3,0.1-0.4c0.2-1,0.4-2,0.7-2.9c0,0,0,0,0,0c0.2,0.1,0.3,0,0.4-0.1
		c0,0.3,0.1,0.6,0.1,0.9C27.2,24,26.7,25.3,26.1,26.6z M28.1,11.3c0,0,0-0.1,0-0.1c0.1,0,0.1-0.1,0.2-0.1
		C28.2,11.1,28.2,11.2,28.1,11.3z M19.2,26.1c0.1,0.1,0.3,0.1,0.4,0c0.1,0,0.2,0.1,0.3,0.1c0,0-0.1,0.1-0.1,0.1
		c-0.1,0.2-0.2,0.4-0.1,0.6c0,0.1,0.1,0.1,0.1,0.2c0.1,0.1,0.2,0.3,0.3,0.3c0.1,0.1,0.2,0.1,0.3,0.2c-0.3-0.1-0.7-0.1-1-0.2
		C19.4,27.1,19.3,26.6,19.2,26.1z M29.3,13.5c0-0.2,0-0.3,0-0.5c0.2-0.3,0.4-0.7,0.6-1c0.1,0,0.1,0.1,0.2,0.1
		C29.8,12.5,29.5,13,29.3,13.5z M29.6,10.6c-0.1,0.1-0.1,0.2-0.2,0.2c-0.1-0.2-0.2-0.3-0.4-0.4c0.2-0.1,0.4-0.3,0.6-0.4
		C29.6,10.2,29.6,10.4,29.6,10.6z M15.3,26.2c0,0.1,0,0.1,0,0.2c0,0,0,0,0,0c-0.1,0.3-0.2,0.5-0.3,0.8c0,0,0,0,0,0
		c0-0.2,0-0.4,0-0.6C15.2,26.4,15.2,26.3,15.3,26.2z M17.5,28.6c-0.1-0.2-0.3-0.4-0.4-0.6c0.1,0,0.2,0,0.3,0.1
		c0.1,0.2,0.2,0.3,0.3,0.5C17.6,28.6,17.6,28.6,17.5,28.6z M18.2,28.3c0.6,0.1,1.3,0.3,1.9,0.4c-0.6,0-1.2,0-1.8,0
		C18.4,28.5,18.3,28.4,18.2,28.3z M28.7,24.5c0-0.2,0-0.4,0-0.5c0-0.3,0-0.6,0-0.8c0,0,0.1,0,0.1,0c0.1,0.1,0.1,0.2,0.2,0.3
		c0,0.1,0,0.2,0,0.3c0,0.2,0,0.4,0,0.5c-0.1,0.1-0.2,0.2-0.2,0.3c0,0,0,0,0,0.1C28.7,24.7,28.7,24.6,28.7,24.5z M30.4,13.9
		c-0.1-0.1-0.1-0.1-0.2-0.1c0.1-0.1,0.1-0.3,0.2-0.4C30.5,13.5,30.5,13.7,30.4,13.9z M15.5,12.8c0,0.3-0.1,0.6-0.1,0.9
		c-0.1,0.1-0.1,0.3-0.1,0.4c0,0.3-0.1,0.5-0.1,0.8c0-0.7,0-1.5,0-2.2C15.4,12.8,15.5,12.8,15.5,12.8z M15.3,17.2c0,0.2,0,0.3,0,0.5
		c0,0.2,0.2,0.4,0.4,0.4c-0.1,0.2-0.1,0.5-0.2,0.7c-0.1,0.3-0.2,0.6-0.2,0.9C15.2,18.9,15.3,18.1,15.3,17.2z M26.9,29.9
		C26.9,29.9,26.9,29.9,26.9,29.9c-0.1,0.1-0.2,0.1-0.3,0.1C26.7,29.9,26.8,29.9,26.9,29.9z M28,29.8c0.1-0.2,0.1-0.4,0.2-0.6
		c0,0.2,0,0.4,0.1,0.6C28.2,29.8,28.1,29.8,28,29.8z M23.9,7.9c-0.4,0-0.9-0.1-1.3-0.1c0.4,0,0.9,0,1.3,0
		C23.9,7.9,23.9,7.9,23.9,7.9z M15.9,10.9c0,0-0.1,0-0.1,0c-0.4,0.1-0.4,0.6-0.1,0.8c0,0,0,0,0,0c0,0,0,0,0,0c-0.1,0-0.3,0-0.4,0.1
		c0-0.6,0-1.2,0-1.8C15.5,10.3,15.7,10.6,15.9,10.9z M15,29.1c0.3,0.1,0.7,0.1,1,0.2c0.1,0.1,0.1,0.1,0.2,0.2
		c-0.4-0.1-0.9-0.2-1.3-0.2C14.9,29.2,14.9,29.2,15,29.1z M18.1,29.8c0,0,0.1-0.1,0.1-0.1c0.8,0.1,1.6,0.1,2.5,0.2
		c0,0.1,0,0.2,0.1,0.2C19.9,30,19,29.9,18.1,29.8z M29.3,30c0-0.1,0-0.2,0-0.4c0.1,0,0.1,0,0.2-0.1c0.1,0.2,0.1,0.3,0.2,0.4
		C29.5,30,29.4,29.9,29.3,30z M31.5,11.4c0,0,0-0.1,0-0.1c0.1-0.9,0.1-1.8,0.2-2.7c0-0.3-0.2-0.4-0.4-0.5c0.1-0.2,0.2-0.3,0.3-0.5
		c0-0.1,0.1-0.1,0.1-0.2c0.1,0,0.1,0,0.2,0C31.8,8.8,31.6,10.1,31.5,11.4z"/>
	<path class="st1" d="M26,21.4c-0.5-0.5-1.1-1.2-1.8-1.7c0.4-0.8,0.8-1.5,1.2-2.2c0.9-1.5,1.9-3.1,2.5-4.7c0.6-1.7-2.1-2.4-2.7-0.7
		c-0.3,0.7-0.8,1.4-1.1,2.1c-0.4,0.7-0.8,1.5-1.2,2.2c-0.2,0.4-0.5,0.8-0.7,1.2c0-1.1,0-2.1-0.1-3.2c0-0.6,0-1.1,0-1.7
		c0-0.8,0-1.3-0.6-1.9c-0.5-0.7-1.5-0.3-1.9,0.2c-0.4,0.6-0.3,1.2-0.3,1.8c0,0.6,0,1.2,0,1.8c0,1.2,0,2.4,0.1,3.5
		c0,2.4,0.1,4.8,0.1,7.2c0,1.8,2.7,1.8,2.7,0c0-1,0-2,0-3.1c0.1-0.1,0.2-0.1,0.3-0.2c0,0,0,0,0,0c0.5,0.5,1,0.9,1.4,1.3
		c0.8,0.9,1.6,1.8,2.3,2.7c0.4,0.5,1.6,0.5,2,0C29.4,24.6,27,22.4,26,21.4z"/>
</g>
<g>
	<path class="st2" d="M51.3,7.2c-1.4,0.3-2.8,0.6-4.3,0.8C47,8,46.8,7.9,46.7,7.9c-3.3,0.4-6.7,0.5-9.9,1.2
		c-0.2-0.3-0.7-0.2-0.7,0.2c-0.1,3.3,0.2,6.7,0.4,10c0.2,3.3,0.3,6.7,0.5,10c0,0.3,0.2,0.5,0.5,0.5c4.3,0.2,8.5-0.2,12.6-1.1
		c0.3-0.1,0.4-0.3,0.4-0.5C51,21.4,51.6,14.6,52,7.8C52.1,7.4,51.7,7.2,51.3,7.2z M43.1,22.4c0,0,0-0.1,0-0.1c0.2,0,0.5,0,0.7,0.1
		c0,0.1,0,0.2,0,0.3C43.6,22.5,43.4,22.4,43.1,22.4z M43.5,23.6c-0.2,0-0.5,0-0.7,0c0-0.1,0-0.2,0.1-0.2
		C43.1,23.4,43.3,23.5,43.5,23.6z M50,19c-0.2-0.3-0.4-0.6-0.5-0.9c0-0.1,0-0.2,0-0.3c0,0.1,0.1,0.1,0.1,0.2
		c0.1,0.1,0.3,0.2,0.4,0.2C50.1,18.4,50,18.7,50,19z M45.4,25.3C45.4,25.3,45.5,25.3,45.4,25.3c0,0-0.1,0-0.2,0
		C45.3,25.3,45.3,25.3,45.4,25.3z M48.5,26.5c-0.1-0.1-0.1-0.1-0.2-0.2c0,0,0-0.1,0.1-0.1c0.1,0,0.1,0.1,0.2,0.1
		C48.6,26.3,48.5,26.4,48.5,26.5z M47.9,23.8c-0.2-0.3-0.4-0.7-0.5-1c0.2,0.1,0.4,0.3,0.5,0.4C47.9,23.4,47.9,23.6,47.9,23.8z
		 M46.5,22.9c0.1,0.1,0.1,0.2,0.2,0.3c-0.1,0-0.1,0-0.2,0C46.4,23.1,46.4,23,46.5,22.9z M48.2,18.9c0,0.1,0.1,0.3,0.1,0.4
		c0,0.1,0,0.1,0,0.2c-0.1,0-0.1-0.1-0.2-0.1C48.1,19.2,48.2,19.1,48.2,18.9z M46,13.6C46,13.6,46,13.6,46,13.6c0-0.1,0-0.2,0-0.3
		c0,0,0.1,0,0.1-0.1C46.1,13.4,46,13.5,46,13.6z M45.5,21.3c-0.1,0-0.2,0-0.2,0c0.1-0.4,0.2-0.8,0.2-1.2c0,0,0.1,0,0.1,0.1
		c0,0,0,0,0,0C45.5,20.6,45.5,20.9,45.5,21.3z M45.3,22.4c0,0.2,0,0.3-0.1,0.5c-0.1-0.1-0.2-0.2-0.3-0.2c0-0.1,0-0.2,0-0.2
		C45.1,22.4,45.2,22.4,45.3,22.4z M44.5,18c-0.1-0.1-0.2-0.2-0.3-0.2c0.1-0.4,0.2-0.7,0.3-1.1c0,0,0,0,0.1,0
		C44.6,17.1,44.5,17.6,44.5,18z M44.3,19.2c-0.1,0.4-0.1,0.8-0.2,1.2c-0.2-0.2-0.3-0.3-0.5-0.5c0.1-0.3,0.2-0.7,0.2-1
		C44.1,19,44.2,19.1,44.3,19.2z M43.8,11.6c-0.1-0.1-0.3-0.1-0.4-0.2c0,0,0,0,0.1,0c0.2,0,0.4,0,0.7,0C44,11.5,43.9,11.6,43.8,11.6z
		 M49.6,25c0-0.7-0.1-1.4-0.3-2c0-0.1-0.1-0.2-0.1-0.2c0-0.1,0-0.2,0-0.3c0.2,0.1,0.4,0.1,0.5,0C49.7,23.3,49.7,24.2,49.6,25z
		 M49.9,21.5c-0.1-0.4-0.2-0.8-0.3-1.2c0-0.1,0.1-0.2,0.1-0.3c0,0,0.1,0.1,0.1,0.1c0.1,0.1,0.1,0.1,0.2,0.1
		C49.9,20.7,49.9,21.1,49.9,21.5z M50.2,16.5c-0.1-0.2-0.1-0.5-0.2-0.7c0.1,0.1,0.2,0.1,0.3,0.1C50.2,16.1,50.2,16.3,50.2,16.5z
		 M50.3,13.6c0,0,0.1,0,0.1,0c0,0.1,0,0.2,0,0.3C50.4,13.9,50.3,13.8,50.3,13.6z M50.8,9.5c0-0.3,0-0.5-0.1-0.8c0-0.1,0-0.1-0.1-0.2
		c0.1,0,0.1,0,0.2,0C50.8,8.8,50.8,9.1,50.8,9.5z M49.7,8.7C49.6,8.7,49.6,8.7,49.7,8.7c-0.1,0-0.2,0-0.3,0.1
		c-0.3,0.2-0.7,0.3-1,0.5C48.2,9.2,48.1,9.1,48,9C48.5,8.9,49.1,8.8,49.7,8.7z M47.5,12.7C47.5,12.7,47.5,12.7,47.5,12.7
		c0.2,0,0.2,0,0.3-0.1c-0.1,0.4-0.3,0.7-0.4,1.1C47.4,13.4,47.4,13.1,47.5,12.7z M47.2,11c0.1,0.1,0.1,0.2,0.2,0.2
		c-0.1,0.1-0.2,0.3-0.2,0.4c-0.5,0.1-1,0.2-1.5,0.3c-0.1,0-0.2,0-0.2,0c-0.1,0-0.1,0-0.2,0c0,0,0,0,0,0C45.8,11.7,46.5,11.4,47.2,11
		z M46.3,10.3c-0.1,0.1-0.3,0.2-0.4,0.2c0,0,0,0-0.1,0C46,10.5,46.1,10.4,46.3,10.3z M45.5,9.4c-1,0.2-2.1,0.4-3.2,0.5
		C43.4,9.7,44.4,9.5,45.5,9.4z M42.1,13.7l0.5,0.1c-0.1,0-0.2,0.1-0.3,0.1c-0.1-0.1-0.3-0.1-0.5-0.2C42,13.8,42,13.7,42.1,13.7z
		 M38,10.3c0,0-0.1,0.1-0.1,0.1c0,0-0.1-0.1-0.1-0.1C37.8,10.3,37.9,10.3,38,10.3z M37.8,12.9c0-0.3-0.1-0.6-0.1-0.9
		c0-0.1,0-0.2,0-0.4c0.1,0.2,0.1,0.4,0.2,0.5c0,0.1,0,0.2,0.1,0.3c0,0,0,0.1,0,0.1C38,12.7,37.9,12.8,37.8,12.9z M38.3,19.3
		C38.2,19.3,38.2,19.3,38.3,19.3c0.1-0.3,0.1-0.6,0.2-0.9c0,0,0,0,0,0C38.4,18.7,38.3,19,38.3,19.3z M40.4,10
		c-0.1,0.1-0.1,0.2-0.1,0.2c-0.6,0-1.2,0-1.8-0.1C39.2,10.2,39.8,10.1,40.4,10z M39,16.7c0-0.2,0-0.4,0-0.5c0.4,0.4,0.7,0.8,1.1,1.2
		c0,0,0,0,0,0.1C39.7,17.2,39.3,17,39,16.7z M39.6,19c-0.1,0.4-0.1,0.8-0.2,1.2c0,0,0,0,0,0c0-0.5,0-0.9,0-1.4
		C39.5,18.9,39.5,19,39.6,19z M39.3,14.3c0.3,0.3,0.5,0.6,0.8,0.8c0,0.1,0,0.1,0,0.2c-0.2-0.1-0.4-0.2-0.7-0.2
		C39.4,14.9,39.4,14.6,39.3,14.3z M40.1,26.1c0.1,0,0.2,0,0.3,0c0,0.1,0,0.2,0,0.2c0,0,0,0,0,0c-0.1,0-0.2,0-0.4,0.1
		C40,26.3,40,26.2,40.1,26.1z M40.3,22.4c0,0.5,0,1,0,1.5c-0.1,0-0.1,0.1-0.2,0.1c0-0.5,0-1.1,0-1.6C40.2,22.3,40.3,22.3,40.3,22.4z
		 M40.2,21.2c0-0.1,0-0.2,0-0.3C40.3,20.9,40.3,21,40.2,21.2C40.2,21.2,40.2,21.2,40.2,21.2z M40.4,24.8c0,0.1,0,0.1,0,0.2
		c-0.1,0-0.2,0-0.2,0c0-0.1,0-0.2,0-0.3C40.2,24.8,40.3,24.8,40.4,24.8z M38.7,11.7c0.1,0.1,0.2,0.1,0.2,0.2c-0.1,0-0.1,0-0.2-0.1
		C38.7,11.7,38.7,11.7,38.7,11.7z M39.6,28.1c-0.2,0-0.3,0.2-0.3,0.4c-0.2,0-0.3,0-0.5,0c0-0.1,0-0.3,0-0.4c0.2,0.3,0.7,0.2,0.8-0.2
		c0-0.1,0.1-0.2,0.1-0.3c0.5,0,1.1,0.1,1.6,0.1C40.8,27.9,40.2,28,39.6,28.1z M41.8,23.7c-0.2,0-0.3,0-0.5,0c0-0.3,0-0.6,0-1
		c0.2,0.1,0.3,0.1,0.5,0.2c0,0.1-0.1,0.2-0.1,0.3C41.7,23.5,41.7,23.6,41.8,23.7z M41.7,21.1c0.1,0,0.1-0.1,0.2-0.2c0,0,0,0,0,0
		c0,0.1,0.1,0.1,0.1,0.2C41.9,21.1,41.8,21.1,41.7,21.1z M41.9,17.9c-0.3-0.3-0.6-0.7-0.9-1c0.4,0.2,0.7,0.4,1,0.6
		C42,17.7,41.9,17.8,41.9,17.9z M42.3,16c0.1,0,0.2-0.1,0.3-0.1c0,0.1-0.1,0.2-0.1,0.3C42.4,16.1,42.4,16,42.3,16z M44.3,26.7
		c0.4,0.1,0.7,0.2,1.1,0.2c-0.4,0.1-0.7,0.1-1.1,0.2c-0.6,0-1.2-0.1-1.7-0.1C43.2,26.9,43.7,26.8,44.3,26.7z M45.8,28.3
		c0.4,0,0.8,0,1.1,0c0.3,0,0.4-0.2,0.5-0.3c0.3-0.1,0.6-0.1,0.9-0.2c0,0.1-0.1,0.2-0.1,0.3c-0.8,0.2-1.6,0.3-2.4,0.4
		C45.8,28.4,45.8,28.4,45.8,28.3z M49.3,27.8c0-0.1,0.1-0.2,0.1-0.3c0-0.1,0.1-0.1,0.1-0.2c0,0.2,0,0.3,0,0.5
		C49.4,27.8,49.3,27.8,49.3,27.8z"/>
	<g>
		<path class="st1" d="M44.8,11c-0.5-0.5-1.3-0.6-1.9-0.4c-0.6,0.1-1.2,0.6-1.3,1.2c-0.2,0.6,0.1,1.3,0.6,1.8
			c0.5,0.5,1.2,0.6,1.8,0.4C45.3,13.7,45.9,12,44.8,11z"/>
		<path class="st1" d="M45.7,23.4c-0.4,0-0.7,0.2-1.1,0.2c-0.1,0-0.1,0-0.1,0.1c0,0,0,0,0-0.1c-0.4-0.4-0.2-1.6-0.1-2.1
			c0.1-1.7,0.2-3.4,0.3-5.1c0.1-0.7-0.7-1.4-1.4-1.4c-0.8,0-1.3,0.6-1.4,1.4c-0.2,1.2-0.3,2.5-0.3,3.7c-0.1,1.2-0.2,2.5,0,3.6
			c0.2,1,0.8,1.9,1.7,2.4c1,0.5,2.5,0.3,3.3-0.6C47.3,24.8,46.9,23.4,45.7,23.4z"/>
	</g>
</g>
<g>
	<path class="st3" d="M74.3,7.2C68.9,7.3,63.4,7.4,58.1,8c-0.3,0-0.5,0.3-0.5,0.6c0.1,0.2,0.1,0.5,0.2,0.7c0,0,0,0,0,0.1
		c0,0.2-0.1,0.4-0.1,0.7c0,0.1,0,0.2,0,0.2c-0.7,6-0.8,12.1-1,18.2c0,0.2,0.2,0.5,0.4,0.5c5.2,0.9,10.5,1.6,15.8,2
		c0.3,0,0.6-0.3,0.6-0.6c0.5-7.5,1-15,1.3-22.6C74.8,7.5,74.6,7.2,74.3,7.2z M66.9,15.5c0-0.4,0-0.7,0.1-1.1c0-0.1,0-0.3,0-0.4
		c0.1,0,0.2,0,0.3,0C67.2,14.5,67,15,66.9,15.5z M67.3,19C67.3,19,67.3,19,67.3,19c0.1,0.2,0.1,0.3,0,0.4c0,0-0.1-0.1-0.1-0.1
		C67.3,19.2,67.3,19.1,67.3,19z M68.4,22.6C68.4,22.6,68.5,22.7,68.4,22.6c0.1,0.2,0.2,0.2,0.3,0.2c0,0.2,0,0.4,0,0.6
		C68.6,23.2,68.5,22.9,68.4,22.6z M70.5,18.7c0,0.5-0.1,1-0.1,1.4c-0.2,1.6-0.4,3.2-0.5,4.7c0,0,0,0.1,0,0.1c0,0,0-0.1-0.1-0.1
		c0,0,0,0,0,0C69.9,22.8,70.2,20.7,70.5,18.7z M70.3,11.5c0.1,0,0.1,0,0.2,0c0,0,0,0.1,0,0.1C70.4,11.6,70.3,11.6,70.3,11.5z
		 M70.3,25.4c0,0.1,0,0.2,0.1,0.3c-0.1-0.1-0.1-0.2-0.2-0.3C70.2,25.4,70.2,25.4,70.3,25.4z M68.6,25.7c0,0.1,0.1,0.2,0.2,0.3
		c-0.1,0-0.1,0-0.2-0.1C68.6,25.9,68.6,25.8,68.6,25.7z M72.6,25.9c0,0.4-0.1,0.7-0.1,1.1c0-0.1-0.1-0.2-0.1-0.3
		c0-0.2,0-0.4,0.1-0.6C72.5,26.1,72.6,26,72.6,25.9z M71.1,8.4c-0.1,0-0.2,0.1-0.3,0.2c-0.7,0-1.5,0-2.2-0.1
		C69.5,8.4,70.3,8.4,71.1,8.4z M69.3,15.1c0,0.1,0,0.1,0,0.2c-0.1,1.2-0.2,2.3-0.3,3.5c0,0.1,0,0.2,0,0.3c-0.1-0.2-0.3-0.4-0.5-0.6
		C68.8,17.3,69,16.2,69.3,15.1z M68.3,20.1c0.1,0.1,0.2,0.2,0.3,0.4c0.1,0.1,0.2,0.1,0.3,0.2l-0.1,0.7c-0.2-0.2-0.4-0.5-0.6-0.7
		C68.3,20.5,68.3,20.3,68.3,20.1z M68.2,11c-0.1,0.1-0.2,0.1-0.2,0.3c-0.1,0.2-0.1,0.3-0.2,0.5c-0.4-0.4-0.8-0.7-1.2-1.1
		C67.2,10.8,67.7,10.9,68.2,11z M66,14.5c0,0.2,0,0.4,0,0.6c0,0.1,0,0.1,0,0.2c-0.1-0.1-0.1-0.1-0.2-0.2C65.8,15,65.9,14.7,66,14.5z
		 M65.3,19.3c-0.1-0.2-0.3-0.4-0.4-0.6c0,0,0-0.1,0-0.1c0.2,0.3,0.4,0.6,0.6,1C65.4,19.5,65.4,19.4,65.3,19.3z M64.7,14.1
		c0.1-0.1,0.2-0.2,0.2-0.4c0.1,0,0.1,0.1,0.2,0.1C65.1,14,65,14.2,65,14.4C64.9,14.3,64.8,14.3,64.7,14.1
		C64.7,14.2,64.7,14.1,64.7,14.1z M59.3,11.5c0.1,0.1,0.2,0.1,0.3,0.1c-0.1,0.5-0.2,1-0.3,1.6C59.2,12.7,59.3,12.2,59.3,11.5
		C59.3,11.6,59.3,11.6,59.3,11.5z M59.8,15.2c0,0.4-0.1,0.7-0.1,1.1c0,0,0,0.1,0,0.2c0,0,0,0,0,0.1c0,0,0,0,0,0c0,0.3,0,0.7-0.1,1
		c-0.1,0.1-0.1,0.3,0,0.5c0,0.6-0.1,1.1-0.1,1.7c-0.1,0.4-0.2,0.7-0.3,1.1C59.3,18.9,59.5,17,59.8,15.2z M59.3,22.8
		c0,0.1,0,0.1,0,0.2c0,0-0.1,0-0.1,0C59.3,22.9,59.3,22.9,59.3,22.8z M58.7,26.9c0,0.1,0.1,0.3,0.1,0.4c-0.2-0.1-0.4-0.1-0.6-0.1
		c0.1-0.4,0.1-0.7,0.2-1.1C58.6,26.4,58.7,26.7,58.7,26.9z M61,26.4c-0.1-0.3-0.1-0.6-0.2-0.8c0.1,0,0.1,0.1,0.2,0.1
		c0.1,0.3,0.3,0.5,0.4,0.8C61.3,26.5,61.1,26.4,61,26.4z M62.9,23.1c0.1,0,0.2,0.1,0.2,0.1c0,0.1,0,0.1,0,0.2
		c-0.2,0-0.3,0.1-0.4,0.2c-0.2-0.1-0.3-0.2-0.5-0.3c0-0.1-0.1-0.2-0.1-0.3C62.3,23.3,62.7,23.3,62.9,23.1z M62,22.8
		C62,22.8,62,22.8,62,22.8c0,0-0.1-0.1-0.1-0.2c0,0,0.1,0,0.1,0C62,22.7,62,22.7,62,22.8z M62,21.4c-0.2-0.1-0.3-0.1-0.5-0.1
		c-0.1-0.2-0.1-0.5-0.2-0.7C61.6,20.8,61.8,21.1,62,21.4C62,21.4,62,21.4,62,21.4z M60.9,17.3c0-0.3,0.1-0.6,0.1-0.9
		c0.1,0.1,0.1,0.2,0.2,0.3c0,0.4,0.1,0.8,0.1,1.2c-0.1-0.1-0.3-0.2-0.5-0.3c0,0,0-0.1,0-0.1C60.9,17.4,60.9,17.4,60.9,17.3z
		 M60.1,8.9C60,8.9,60,8.9,60.1,8.9C59.8,9,59.6,9,59.4,9.2c-0.1,0-0.1,0.1-0.1,0.1l-0.2-0.4C59.4,8.9,59.7,8.9,60.1,8.9z M58.7,9.6
		c0.1,0.2,0.2,0.3,0.2,0.5c-0.1-0.1-0.3-0.1-0.4-0.2C58.7,9.8,58.7,9.7,58.7,9.6z M58.5,11c0.1,0.1,0.1,0.1,0.2,0.2
		c-0.1,0-0.2,0.1-0.2,0.1C58.5,11.2,58.5,11.1,58.5,11z M68.9,29.4c0.3-0.3,0.3-0.8-0.2-0.9c0,0,0,0,0,0c0-0.1,0-0.1,0-0.2
		c0,0,0-0.1,0.1-0.1c0.3,0.1,0.5,0.2,0.8,0.3c0.1,0.2,0.1,0.4,0.2,0.6c0.2,0.7,1.2,0.4,1-0.3c0,0,0-0.1,0-0.1c0.1,0,0.1,0,0.2,0
		c0.1,0.2,0.2,0.4,0.3,0.6c0.2,0.5,0.8,0.4,1,0c0.1,0.1,0.1,0.1,0.2,0.2c0,0.1,0,0.1,0,0.2C71.2,29.6,70,29.5,68.9,29.4z M73.3,16
		c0-0.1,0-0.1-0.1-0.2c0-0.1,0.1-0.1,0.1-0.2c0-0.1,0-0.1,0-0.2C73.3,15.7,73.3,15.8,73.3,16z M73.7,8.6c-0.1-0.1-0.1-0.2-0.2-0.3
		c0.1,0,0.2,0,0.2,0C73.7,8.4,73.7,8.5,73.7,8.6z"/>
	<path class="st1" d="M69.3,16.7c0-1.6,0-3.3-0.2-4.9c-0.1-0.7-0.6-1.4-1.4-1.4c-0.8,0-1.4,0.6-1.4,1.4c0,1.8,0.1,3.5,0.1,5.3
		c-0.7-0.4-1.6-0.5-2.5-0.2c-1.3,0.4-2.1,1.5-2.5,2.7c-0.8,2.6,0.4,5.9,3.2,6.8c1.3,0.4,2.8,0.1,3.7-1c0.9-1.1,0.9-2.6,0.9-4
		C69.3,19.9,69.4,18.3,69.3,16.7z M66.2,23.6C66,24,65.3,23.7,65,23.5c-0.6-0.4-0.8-1.2-0.9-1.9c-0.1-0.6,0-1.3,0.4-1.8
		c0.5-0.6,0.9-0.2,1.5-0.1c0.2,0,0.3,0,0.5,0c0,0.5,0,1,0,1.6C66.5,21.9,66.6,23.1,66.2,23.6z"/>
</g>
<g>
	<path class="st4" d="M95.4,7.6C89.7,8.4,84.1,9.2,78.5,10c-0.3,0-0.4,0.4-0.4,0.7c0.1,0.2,0.1,0.4,0.2,0.7c0,0.1,0,0.1,0,0.2
		c0.2,5.8,0.8,11.5,1.1,17.3c0,0.3,0.2,0.5,0.6,0.6c0.9,0.1,1.9,0.1,2.8,0.2c0.1,0.1,0.3,0.1,0.5,0c3.7,0.3,7.3,0.6,11,1
		c0.3,0,0.5-0.3,0.6-0.6c0.5-7.3,0.9-14.6,1.4-21.8C96.1,7.8,95.7,7.6,95.4,7.6z M89.9,21C89.9,21,89.9,21,89.9,21
		c-0.1-0.2,0-0.4,0-0.6c0,0,0,0,0.1,0C90,20.7,89.9,20.9,89.9,21z M90.7,27.1c-0.2-0.4-0.4-0.8-0.6-1.2c-0.1-0.1-0.1-0.2-0.2-0.4
		c0,0,0.1,0,0.1,0C90.3,26.1,90.6,26.6,90.7,27.1C90.8,27.1,90.7,27.1,90.7,27.1z M86,27c0,0,0-0.1,0-0.1c0.2,0,0.4,0.1,0.5,0.1
		C86.4,27,86.2,27,86,27z M84.1,19.7c0-0.1,0-0.3,0-0.4c0.1,0.1,0.3,0.2,0.4,0.2c-0.1,0-0.2,0.1-0.3,0.2
		C84.2,19.7,84.2,19.7,84.1,19.7z M84.6,16.3C84.6,16.3,84.6,16.3,84.6,16.3c0.1,0,0.3,0.1,0.4,0.1c0,0.1,0,0.1,0,0.2
		C84.9,16.5,84.8,16.4,84.6,16.3z M84.5,21.9c0,0.1,0,0.1,0.1,0.2c-0.1-0.1-0.2-0.2-0.3-0.3C84.4,21.9,84.4,21.9,84.5,21.9z
		 M83,21.3c-0.1,0.1-0.1,0.2,0,0.4c0,0,0,0.1,0.1,0.1c0,0.1,0,0.2,0,0.4c0,0-0.1,0-0.1,0c-0.1-0.1-0.1-0.2-0.2-0.2
		c0-0.2,0-0.5,0-0.7C82.9,21.2,83,21.3,83,21.3z M83,19.4c0-0.2,0-0.5,0.1-0.7c0,0,0,0,0.1,0c0,0.2,0,0.5,0,0.7
		C83,19.4,83,19.4,83,19.4z M81.9,13.1c0,0.2,0,0.3-0.1,0.5c0,0.1-0.1,0.1-0.1,0.2c0,0,0,0,0-0.1c-0.1-0.3-0.4-0.4-0.6-0.3
		c0-0.1,0.1-0.2,0.1-0.4C81.5,13.1,81.7,13.1,81.9,13.1z M81,23C81,23.1,81,23.1,81,23c0-0.1,0-0.3-0.1-0.4c0,0,0,0,0.1,0
		C81,22.7,81,22.9,81,23z M80.8,14.4l-0.1,0.7c0-0.2,0-0.5,0-0.7C80.6,14.4,80.7,14.4,80.8,14.4z M81.9,24.4c0-0.1,0-0.2,0-0.4
		c0,0.1,0.1,0.3,0.1,0.4C82.1,24.5,82,24.5,81.9,24.4C82,24.5,82,24.5,81.9,24.4z M81.9,25.8c0.3,0.4,0.5,0.7,0.8,1.1
		c-0.1,0-0.2,0-0.4,0C82.2,26.5,82,26.1,81.9,25.8z M82.8,23.5C82.8,23.5,82.8,23.5,82.8,23.5c0.1,0.1,0.1,0.2,0.2,0.3
		c0,0.1,0,0.2,0,0.3C82.9,24,82.8,23.7,82.8,23.5z M85.1,24.4c0.1,0,0.2,0.1,0.2,0.1c0,0,0,0,0,0.1c-0.1,0-0.2,0-0.2,0
		C85.1,24.5,85.1,24.5,85.1,24.4z M86.1,23.4c0.1,0,0.2,0,0.2,0c0,0.1,0.1,0.1,0.1,0.2C86.3,23.5,86.2,23.5,86.1,23.4
		C86.1,23.5,86.1,23.4,86.1,23.4z M91.3,21.6c0,0.2,0,0.4,0.1,0.6c-0.1,0-0.1,0-0.2,0L91.3,21.6z M92.9,26.1
		c0.1,0.3,0.1,0.5,0.2,0.8c0,0,0,0-0.1-0.1C93,26.6,92.9,26.4,92.9,26.1C92.9,26.2,92.9,26.2,92.9,26.1z M86.9,17.7
		c0,0-0.1,0-0.1-0.1c0-0.3,0.1-0.5,0.1-0.8c0,0,0,0,0,0C87,17.1,86.9,17.4,86.9,17.7z M86.8,19.3C86.8,19.4,86.8,19.4,86.8,19.3
		c-0.1,0-0.2,0-0.2-0.1C86.7,19.3,86.7,19.3,86.8,19.3z M82.8,11.9C82.7,11.9,82.7,11.9,82.8,11.9c-0.1-0.1-0.1-0.1-0.1-0.2
		c0.1,0,0.2,0,0.3,0C82.9,11.7,82.8,11.8,82.8,11.9z M80,18.7c0,0.1,0.1,0.3,0.2,0.3c0,0.1,0,0.2,0,0.3c0,0.1,0,0.2,0,0.3
		c0,0.2,0,0.3,0,0.5c0,0-0.1,0.1-0.1,0.1c-0.1-2.2-0.3-4.4-0.6-6.6c0.1,0,0.1,0,0.1-0.1C79.7,15.2,79.9,17,80,18.7z M80.5,26.4
		c0.1,0.1,0.1,0.1,0.2,0.2c0,0,0,0.1,0,0.1c0,0,0,0,0,0c-0.1-0.1-0.2-0.1-0.3-0.1c0-0.1,0-0.2,0-0.3C80.4,26.3,80.4,26.4,80.5,26.4z
		 M83.1,28.5c-0.1-0.1-0.1-0.2-0.2-0.3c0.3,0.1,0.5,0.1,0.8,0.2c0,0,0,0,0,0c0.1,0.1,0.1,0.1,0.2,0.2C83.6,28.5,83.4,28.5,83.1,28.5
		z M84,26.9c-0.1-0.2-0.2-0.5-0.3-0.7c0.3,0.1,0.5,0.2,0.8,0.2c0.1,0.2,0.2,0.3,0.3,0.5C84.5,26.9,84.3,26.9,84,26.9z M85.6,25.7
		c0-0.1,0-0.1-0.1-0.2c0.2,0,0.4,0,0.6,0c0.1,0.1,0.1,0.3,0.2,0.4C86,25.9,85.8,25.8,85.6,25.7z M87.7,26.3
		c-0.2-0.3-0.3-0.5-0.5-0.8c0.1,0,0.2,0,0.3,0c0.1,0.3,0.3,0.5,0.4,0.8C87.8,26.4,87.8,26.3,87.7,26.3z M89.3,26.8
		c-0.2-0.4-0.4-0.8-0.6-1.2c0,0,0,0,0.1,0c0.1,0.1,0.1,0.3,0.2,0.4C89.1,26.2,89.2,26.5,89.3,26.8C89.3,26.8,89.3,26.8,89.3,26.8z
		 M91.2,28C91.2,28,91.2,28,91.2,28c0.1,0.1,0.1,0.2,0.2,0.3c0,0-0.1,0-0.1,0C91.2,28.2,91.2,28.1,91.2,28z M94,23.2
		C94,23.2,94,23.2,94,23.2c0-0.3,0-0.6,0.1-0.9C94,22.6,94,22.9,94,23.2z M93.8,11.2c0,0.1,0,0.2,0,0.3c-0.1,0-0.1,0.1-0.1,0.1
		c0-0.1,0-0.1,0-0.2c0,0,0-0.1,0-0.1C93.7,11.3,93.7,11.3,93.8,11.2z M92.4,15.5c0-0.1,0-0.1-0.1-0.1c0-0.2,0.1-0.3,0.1-0.5
		C92.4,15.1,92.4,15.3,92.4,15.5z M91.6,12.8c0.1,0,0.1-0.1,0.2-0.1c-0.1,0.3-0.2,0.6-0.3,1c0,0,0,0,0,0c0-0.2,0-0.5-0.1-0.7
		C91.5,12.9,91.6,12.9,91.6,12.8z M90,13.5c-0.1,0-0.2,0-0.2,0c0,0,0,0,0,0c0.1,0,0.2,0,0.3-0.1C90,13.4,90,13.5,90,13.5z M90,11
		c-0.2,0.1-0.4,0.2-0.6,0.3c-0.4,0-0.8-0.1-1.1-0.1C88.8,11.1,89.4,11.1,90,11z M88.2,18.3c0.1-0.4,0.1-0.8,0.2-1.1
		c0.1,0,0.2,0,0.2,0.1c0,0.4,0,0.9,0,1.3C88.5,18.5,88.3,18.4,88.2,18.3C88.2,18.4,88.2,18.4,88.2,18.3z M88.5,19.9
		c0,0.2,0,0.3,0,0.5c-0.1-0.1-0.3-0.2-0.4-0.2c0,0-0.1-0.1-0.1-0.1c0-0.1,0-0.2,0-0.3C88.2,19.8,88.4,19.9,88.5,19.9z M87.3,9.9
		c0,0,0,0.1,0,0.1c-0.4,0.1-0.7,0.1-1.1,0.2c-0.4,0.1-0.9,0.1-1.3,0.2c-0.1-0.1-0.3-0.1-0.5,0c0,0-0.1,0.1-0.1,0.1
		c-0.4,0-0.8,0-1.1,0C84.6,10.2,85.9,10.1,87.3,9.9z M79.3,10.9c0.5-0.1,0.9-0.1,1.4-0.2c0,0.2,0.1,0.4,0.3,0.5
		c-0.2,0.2-0.3,0.4-0.4,0.7c0,0-0.1,0-0.1,0c0-0.2,0-0.4,0-0.6c0-0.5-0.6-0.6-0.9-0.2c0,0.1-0.1,0.1-0.1,0.2
		C79.4,11.3,79.3,11.1,79.3,10.9z M80.4,28c0.1,0.1,0.1,0.2,0.2,0.3c-0.1,0-0.1,0-0.2,0C80.5,28.2,80.5,28.1,80.4,28z M84.2,28.6
		c0.1,0,0.1,0,0.2-0.1c0.3,0.1,0.6,0.1,0.9,0.2C84.9,28.6,84.6,28.6,84.2,28.6z M91.7,29c0.3,0.2,0.7,0,0.8-0.4
		c0.1,0.1,0.1,0.3,0.2,0.4c0.1,0.1,0.1,0.2,0.2,0.2c-0.5-0.1-1-0.1-1.5-0.1C91.6,29.2,91.7,29.1,91.7,29z M93.2,29.3
		c0.2,0,0.4-0.2,0.5-0.4c0,0,0,0,0-0.1c0,0.2,0,0.3,0,0.5C93.5,29.4,93.3,29.4,93.2,29.3z M94.6,13.9c0-0.3,0-0.7,0-1c0,0,0,0,0,0
		C94.6,13.3,94.6,13.6,94.6,13.9z M94.9,9.3c-0.1-0.2-0.3-0.4-0.5-0.4c0.2,0,0.3,0,0.5-0.1C94.9,9,94.9,9.1,94.9,9.3z"/>
	<path class="st1" d="M91.6,22.5c-0.1-2.4-1.8-4.3-4.1-4.6c-0.5-0.1-1.4,0-0.9-0.8c0.2-0.3,0.6-0.5,1-0.6c0.5-0.1,0.7,0.1,1,0.4
		c0.7,0.7,1.9,0.2,1.9-0.8c0-1.2-1-2.1-2.2-2.3c-1.1-0.2-2.3,0.2-3.1,0.9c-1.8,1.3-2.3,4.3-0.1,5.5c0.5,0.3,1.1,0.4,1.6,0.5
		c0.4,0,0.8,0,1.2,0.2c0.7,0.4,1,1.4,0.9,2.2c-0.1,0.6-0.8,1.3-1.5,1.2c-0.9-0.1-0.9-1.1-1.4-1.6c-0.5-0.6-1.7-0.5-2,0.3
		c-1,2.2,1.7,4.3,3.7,4.1C89.9,26.9,91.7,24.8,91.6,22.5z"/>
</g>
</svg>
